<svg xmlns="http://www.w3.org/2000/svg" xmlns:xlink="http://www.w3.org/1999/xlink" width="399.093" height="96.11" viewBox="0 0 399.093 96.11">
  <defs>
    <style>
      .cls-1 {
        fill: #1a6cbc;
        font-size: 70px;
        font-family: SegoeUI-Bold, Segoe UI;
        font-weight: 700;
      }

      .cls-2 {
        fill: #f85757;
      }

      .cls-3 {
        fill: #fffdfd;
      }

      .cls-3, .cls-4 {
        stroke: #1a6cbc;
        stroke-width: 2px;
      }

      .cls-4 {
        fill: none;
      }

      .cls-5 {
        filter: url(#magnifiying-glass);
      }

      .cls-6 {
        filter: url(#Path_3);
      }
    </style>
    <filter id="Path_3" x="0" y="12.956" width="104.088" height="78.807" filterUnits="userSpaceOnUse">
      <feOffset dy="3" input="SourceAlpha"/>
      <feGaussianBlur stdDeviation="3" result="blur"/>
      <feFlood flood-color="#410d0d" flood-opacity="0.161"/>
      <feComposite operator="in" in2="blur"/>
      <feComposite in="SourceGraphic"/>
    </filter>
    <filter id="magnifiying-glass" x="24.916" y="34.677" width="61.427" height="61.432" filterUnits="userSpaceOnUse">
      <feOffset dy="3" input="SourceAlpha"/>
      <feGaussianBlur stdDeviation="3" result="blur-2"/>
      <feFlood flood-opacity="0.529"/>
      <feComposite operator="in" in2="blur-2"/>
      <feComposite in="SourceGraphic"/>
    </filter>
  </defs>
  <g id="Group_1" data-name="Group 1" transform="translate(-233.907 -271)">
    <text id="JOBSTEK" class="cls-1" transform="translate(338 347)"><tspan class="cls-2" x="0" y="0">JOBS</tspan><tspan y="0">TEK</tspan></text>
    <g id="cloud" transform="translate(244 291)">
      <path id="Path_1" data-name="Path 1" class="cls-3" d="M10.872,151.91a11.182,11.182,0,0,0,8.87,18H72.9c.476,0,.937-.014,1.4-.056a16.788,16.788,0,0,0-1.4-33.519,16.6,16.6,0,0,0-5.624.965c.014-.322.028-.643.028-.965a16.788,16.788,0,0,0-13.053-16.368c-.293-.07-.6-.126-.908-.168-.434-.084-.867-.14-1.315-.182-.5-.042-1.007-.07-1.511-.07a16.774,16.774,0,0,0-12,5.036,15.815,15.815,0,0,0-2.686,3.623.487.487,0,0,1-.07.112v.014a16.026,16.026,0,0,0-1.357,3.274,16.962,16.962,0,0,0-.574,2.952,14.8,14.8,0,0,0-.1,1.777,16.019,16.019,0,0,0,.14,2.182,12.052,12.052,0,0,0-4.337-.783,12.609,12.609,0,0,0-5.428,1.231,13.526,13.526,0,0,0-1.581.909,7.523,7.523,0,0,0-.853.643,12.428,12.428,0,0,0-1.343,1.231,11.425,11.425,0,0,0-1.1,1.357,12.476,12.476,0,0,0-2.028,4.714,10.59,10.59,0,0,0-2.336.839,11.265,11.265,0,0,0-2.518,1.679,10.334,10.334,0,0,0-1.469,1.573Z" transform="translate(-7.147 -112.551)"/>
      <path id="Path_2" data-name="Path 2" class="cls-3" d="M17.278,119.254a12.481,12.481,0,0,1,2.028-4.714,11.41,11.41,0,0,1,1.1-1.357,12.458,12.458,0,0,1,1.343-1.231,7.485,7.485,0,0,1,.853-.643,13.53,13.53,0,0,1,1.581-.909,12.612,12.612,0,0,1,5.428-1.231,12.052,12.052,0,0,1,4.337.783,16.016,16.016,0,0,1-.14-2.182,14.8,14.8,0,0,1,.1-1.777,16.966,16.966,0,0,1,.574-2.952,16.019,16.019,0,0,1,1.357-3.274v-.014a.48.48,0,0,0,.07-.112A15.819,15.819,0,0,1,38.6,96.017a16.774,16.774,0,0,1,12-5.036c.5,0,1.007.028,1.511.07.448.042.881.1,1.315.182A11.172,11.172,0,0,0,32.47,95.584a9.613,9.613,0,0,0-5.652-1.8,9.812,9.812,0,0,0-9.387,12.6,3.556,3.556,0,0,0-.406-.014,8.394,8.394,0,0,0-4.6,15.4,11.26,11.26,0,0,1,2.518-1.679,10.584,10.584,0,0,1,2.335-.837Z" transform="translate(-7.23 -83.98)"/>
      <g class="cls-6" transform="matrix(1, 0, 0, 1, -10.09, -20)">
        <path id="Path_3-2" data-name="Path 3" class="cls-4" d="M65.756,99.26a18.172,18.172,0,0,0-4.221.49A18.306,18.306,0,0,0,47.429,82.93c-.127-.031-.256-.056-.383-.081a12.553,12.553,0,0,0-22.84,3.412A11.2,11.2,0,0,0,8.4,96.462a11.45,11.45,0,0,0,.1,1.486,9.772,9.772,0,0,0-5.379,16.841c-.169.195-.344.386-.5.59A12.449,12.449,0,0,0,0,123.042a12.606,12.606,0,0,0,12.6,12.591H65.756c.519,0,1.023-.015,1.514-.06A18.186,18.186,0,0,0,65.756,99.26ZM9.8,100.659h.109a1.169,1.169,0,0,1,.14,0A1.4,1.4,0,0,0,11.54,98.87a8.55,8.55,0,0,1-.341-2.408,8.4,8.4,0,0,1,8.394-8.394,8.218,8.218,0,0,1,4.835,1.539,1.4,1.4,0,0,0,2.21-1.016,9.843,9.843,0,0,1,10.331-8.909,9.685,9.685,0,0,1,6.266,2.79c-.088,0-.174.014-.262.015h-.056a18.458,18.458,0,0,0-1.945.154l-.076.013a18.044,18.044,0,0,0-1.873.355l-.1.027a17.629,17.629,0,0,0-1.763.539L37,83.634q-.818.306-1.6.69c-.081.039-.162.076-.242.116-.484.246-.955.516-1.417.806-.1.064-.211.124-.313.19-.434.28-.853.593-1.259.916-.111.087-.225.164-.334.253a18.682,18.682,0,0,0-1.446,1.318,17.228,17.228,0,0,0-2.921,3.942v-.008l-.011.017a1.592,1.592,0,0,0-.111.2,17.485,17.485,0,0,0-1.419,3.454,18.038,18.038,0,0,0-.62,3.176,15.683,15.683,0,0,0-.112,1.952v.28a14.146,14.146,0,0,0-8.84,1.093,14.97,14.97,0,0,0-1.743,1,8.088,8.088,0,0,0-.947.712,13.451,13.451,0,0,0-1.48,1.354,12.572,12.572,0,0,0-1.242,1.522,13.924,13.924,0,0,0-2.054,4.389,11.109,11.109,0,0,0-1.785.715,13.043,13.043,0,0,0-1.743,1.051c-.059.041-.129.07-.186.112A6.994,6.994,0,0,1,9.8,100.659Zm57.229,32.126c-.42.039-.839.05-1.27.05H12.6a9.8,9.8,0,0,1-9.8-9.793,9.7,9.7,0,0,1,2.04-5.971,9.1,9.1,0,0,1,1.281-1.364,9.945,9.945,0,0,1,2.224-1.479,9.092,9.092,0,0,1,2.028-.726,1.4,1.4,0,0,0,1.042-1.081,11.173,11.173,0,0,1,1.8-4.186,10.163,10.163,0,0,1,.979-1.207,11.366,11.366,0,0,1,1.259-1.146,6.336,6.336,0,0,1,.7-.522,11.985,11.985,0,0,1,1.4-.81,11.639,11.639,0,0,1,1.087-.445c.269-.1.543-.171.818-.245.092-.025.182-.056.28-.078.294-.071.59-.124.887-.172.084-.013.168-.031.252-.042.267-.036.536-.057.8-.074.14-.008.269-.02.4-.022.263-.008.523,0,.783,0a2.068,2.068,0,0,1,.28.013c.262.017.519.046.775.081.1.013.195.022.29.038.263.043.523.1.781.165.081.02.164.034.245.055a10.022,10.022,0,0,1,.979.318,1.4,1.4,0,0,0,1.89-1.494,14.545,14.545,0,0,1-.127-1.988,13.392,13.392,0,0,1,.09-1.624,15.7,15.7,0,0,1,.526-2.713,14.628,14.628,0,0,1,1.238-2.987.567.567,0,0,0,.028-.055c.008-.019.034-.059.049-.09h0a14.4,14.4,0,0,1,2.454-3.3,15.3,15.3,0,0,1,11-4.617c.466,0,.93.027,1.379.063.4.039.792.088,1.179.164l.08.013a7.923,7.923,0,0,1,.788.14,15.486,15.486,0,0,1,11.962,15.009c0,.3-.014.6-.027.9a1.4,1.4,0,0,0,1.872,1.376,15.164,15.164,0,0,1,5.15-.883,15.388,15.388,0,0,1,1.27,30.727Z" transform="translate(10.09 -56.87)"/>
      </g>
    </g>
    <g id="user" transform="translate(276.465 318.596)">
      <g id="Group_2" data-name="Group 2" transform="translate(4.273)">
        <g id="Group_1-2" data-name="Group 1">
          <path id="Path_4" data-name="Path 4" class="cls-2" d="M116.692,0a5.9,5.9,0,1,0,5.9,5.9A5.9,5.9,0,0,0,116.692,0Z" transform="translate(-110.791)"/>
        </g>
      </g>
      <g id="Group_4" data-name="Group 4" transform="translate(0 12.225)">
        <g id="Group_3" data-name="Group 3">
          <path id="Path_5" data-name="Path 5" class="cls-2" d="M44.466,252.134a5.5,5.5,0,0,0-.593-1.082,7.335,7.335,0,0,0-5.077-3.2,1.086,1.086,0,0,0-.747.18,6.29,6.29,0,0,1-7.422,0,.967.967,0,0,0-.747-.18,7.282,7.282,0,0,0-5.077,3.2,6.342,6.342,0,0,0-.593,1.082.548.548,0,0,0,.026.49,10.285,10.285,0,0,0,.7,1.031A9.794,9.794,0,0,0,26.121,255a15.449,15.449,0,0,0,1.185,1.031,11.752,11.752,0,0,0,14.019,0,11.331,11.331,0,0,0,1.185-1.031,11.9,11.9,0,0,0,1.185-1.34,9.037,9.037,0,0,0,.7-1.031.44.44,0,0,0,.071-.49Z" transform="translate(-24.165 -247.841)"/>
        </g>
      </g>
    </g>
    <g class="cls-5" transform="matrix(1, 0, 0, 1, 233.91, 271)">
      <path id="magnifiying-glass-2" data-name="magnifiying-glass" class="cls-2" d="M42.045,39.707,31.666,29.328a17.925,17.925,0,1,0-2.339,2.338l10.38,10.379a1.653,1.653,0,1,0,2.338-2.338ZM3.307,17.9A14.593,14.593,0,1,1,17.9,32.493,14.593,14.593,0,0,1,3.307,17.9Z" transform="translate(34.81 40.73) rotate(1.15)"/>
    </g>
  </g>
</svg>
